<mxfile host="app.diagrams.net" agent="Mozilla/5.0 (Windows NT 10.0; Win64; x64; rv:133.0) Gecko/20100101 Firefox/133.0" version="25.0.3" pages="3">
  <diagram name="Flowchart" id="k8Pc6aq5HTc_s65d1Udk">
    <mxGraphModel dx="1834" dy="814" grid="1" gridSize="10" guides="1" tooltips="1" connect="1" arrows="1" fold="1" page="0" pageScale="1" pageWidth="827" pageHeight="1169" math="0" shadow="0">
      <root>
        <mxCell id="0" />
        <mxCell id="1" parent="0" />
        <mxCell id="BMHqiI6div1IQIs8GwV2-13" style="edgeStyle=orthogonalEdgeStyle;rounded=0;orthogonalLoop=1;jettySize=auto;html=1;exitX=0.5;exitY=1;exitDx=0;exitDy=0;entryX=0.5;entryY=0;entryDx=0;entryDy=0;" parent="1" source="0I61ulGY1BBRAlehvqKD-4" target="0I61ulGY1BBRAlehvqKD-5" edge="1">
          <mxGeometry relative="1" as="geometry" />
        </mxCell>
        <mxCell id="0I61ulGY1BBRAlehvqKD-4" value="&lt;div&gt;Start&lt;/div&gt;" style="ellipse;whiteSpace=wrap;html=1;labelBackgroundColor=none;fillColor=#dae8fc;strokeColor=#6c8ebf;" parent="1" vertex="1">
          <mxGeometry x="20" width="100" height="40" as="geometry" />
        </mxCell>
        <mxCell id="BMHqiI6div1IQIs8GwV2-12" style="edgeStyle=orthogonalEdgeStyle;rounded=0;orthogonalLoop=1;jettySize=auto;html=1;exitX=0.5;exitY=1;exitDx=0;exitDy=0;entryX=0.5;entryY=0;entryDx=0;entryDy=0;" parent="1" source="0I61ulGY1BBRAlehvqKD-5" target="0I61ulGY1BBRAlehvqKD-7" edge="1">
          <mxGeometry relative="1" as="geometry" />
        </mxCell>
        <mxCell id="0I61ulGY1BBRAlehvqKD-5" value="Find SessionManager" style="whiteSpace=wrap;html=1;labelBackgroundColor=none;" parent="1" vertex="1">
          <mxGeometry x="20" y="80" width="100" height="40" as="geometry" />
        </mxCell>
        <mxCell id="BMHqiI6div1IQIs8GwV2-9" style="edgeStyle=orthogonalEdgeStyle;rounded=0;orthogonalLoop=1;jettySize=auto;html=1;exitX=0.5;exitY=1;exitDx=0;exitDy=0;entryX=0.5;entryY=0;entryDx=0;entryDy=0;" parent="1" source="0I61ulGY1BBRAlehvqKD-6" target="0I61ulGY1BBRAlehvqKD-19" edge="1">
          <mxGeometry relative="1" as="geometry" />
        </mxCell>
        <mxCell id="0I61ulGY1BBRAlehvqKD-6" value="&lt;div&gt;Read session id&lt;/div&gt;" style="rounded=0;whiteSpace=wrap;html=1;labelBackgroundColor=none;" parent="1" vertex="1">
          <mxGeometry x="20" y="240" width="100" height="40" as="geometry" />
        </mxCell>
        <mxCell id="BMHqiI6div1IQIs8GwV2-10" style="edgeStyle=orthogonalEdgeStyle;rounded=0;orthogonalLoop=1;jettySize=auto;html=1;exitX=0.5;exitY=1;exitDx=0;exitDy=0;entryX=0.5;entryY=0;entryDx=0;entryDy=0;" parent="1" source="0I61ulGY1BBRAlehvqKD-7" target="0I61ulGY1BBRAlehvqKD-6" edge="1">
          <mxGeometry relative="1" as="geometry" />
        </mxCell>
        <mxCell id="BMHqiI6div1IQIs8GwV2-21" value="Yes" style="edgeLabel;html=1;align=center;verticalAlign=middle;resizable=0;points=[];" parent="BMHqiI6div1IQIs8GwV2-10" vertex="1" connectable="0">
          <mxGeometry x="-0.0765" y="4" relative="1" as="geometry">
            <mxPoint x="6" y="-8" as="offset" />
          </mxGeometry>
        </mxCell>
        <mxCell id="BMHqiI6div1IQIs8GwV2-11" style="edgeStyle=orthogonalEdgeStyle;rounded=0;orthogonalLoop=1;jettySize=auto;html=1;exitX=0;exitY=0.5;exitDx=0;exitDy=0;entryX=1;entryY=0.5;entryDx=0;entryDy=0;" parent="1" source="0I61ulGY1BBRAlehvqKD-7" target="0I61ulGY1BBRAlehvqKD-30" edge="1">
          <mxGeometry relative="1" as="geometry" />
        </mxCell>
        <mxCell id="BMHqiI6div1IQIs8GwV2-20" value="&lt;div&gt;No&lt;/div&gt;" style="edgeLabel;html=1;align=center;verticalAlign=middle;resizable=0;points=[];" parent="BMHqiI6div1IQIs8GwV2-11" vertex="1" connectable="0">
          <mxGeometry x="-0.1745" y="-4" relative="1" as="geometry">
            <mxPoint x="7" y="-6" as="offset" />
          </mxGeometry>
        </mxCell>
        <mxCell id="0I61ulGY1BBRAlehvqKD-7" value="Found?" style="rhombus;whiteSpace=wrap;html=1;labelBackgroundColor=none;" parent="1" vertex="1">
          <mxGeometry x="20" y="160" width="100" height="40" as="geometry" />
        </mxCell>
        <mxCell id="BMHqiI6div1IQIs8GwV2-7" style="edgeStyle=orthogonalEdgeStyle;rounded=0;orthogonalLoop=1;jettySize=auto;html=1;exitX=1;exitY=0.5;exitDx=0;exitDy=0;entryX=0.5;entryY=0;entryDx=0;entryDy=0;" parent="1" source="0I61ulGY1BBRAlehvqKD-19" target="0I61ulGY1BBRAlehvqKD-58" edge="1">
          <mxGeometry relative="1" as="geometry" />
        </mxCell>
        <mxCell id="BMHqiI6div1IQIs8GwV2-8" style="edgeStyle=orthogonalEdgeStyle;rounded=0;orthogonalLoop=1;jettySize=auto;html=1;exitX=0;exitY=0.5;exitDx=0;exitDy=0;entryX=1;entryY=0.5;entryDx=0;entryDy=0;" parent="1" source="0I61ulGY1BBRAlehvqKD-19" target="0I61ulGY1BBRAlehvqKD-32" edge="1">
          <mxGeometry relative="1" as="geometry" />
        </mxCell>
        <mxCell id="BMHqiI6div1IQIs8GwV2-19" value="&lt;div&gt;No&lt;/div&gt;" style="edgeLabel;html=1;align=center;verticalAlign=middle;resizable=0;points=[];" parent="BMHqiI6div1IQIs8GwV2-8" vertex="1" connectable="0">
          <mxGeometry x="-0.3706" y="1" relative="1" as="geometry">
            <mxPoint x="3" y="-11" as="offset" />
          </mxGeometry>
        </mxCell>
        <mxCell id="0I61ulGY1BBRAlehvqKD-19" value="Found?" style="rhombus;whiteSpace=wrap;html=1;labelBackgroundColor=none;" parent="1" vertex="1">
          <mxGeometry x="20" y="320" width="100" height="40" as="geometry" />
        </mxCell>
        <mxCell id="BMHqiI6div1IQIs8GwV2-5" style="edgeStyle=orthogonalEdgeStyle;rounded=0;orthogonalLoop=1;jettySize=auto;html=1;exitX=0.5;exitY=1;exitDx=0;exitDy=0;entryX=0.5;entryY=0;entryDx=0;entryDy=0;" parent="1" source="0I61ulGY1BBRAlehvqKD-24" target="0I61ulGY1BBRAlehvqKD-28" edge="1">
          <mxGeometry relative="1" as="geometry" />
        </mxCell>
        <mxCell id="0I61ulGY1BBRAlehvqKD-24" value="Apply user name" style="rounded=0;whiteSpace=wrap;html=1;labelBackgroundColor=none;" parent="1" vertex="1">
          <mxGeometry x="200" y="160" width="140" height="40" as="geometry" />
        </mxCell>
        <mxCell id="0I61ulGY1BBRAlehvqKD-25" value="Yes" style="edgeLabel;html=1;align=center;verticalAlign=middle;resizable=0;points=[];fontSize=12;labelBackgroundColor=none;" parent="1" vertex="1" connectable="0">
          <mxGeometry x="130" y="330" as="geometry" />
        </mxCell>
        <mxCell id="7zMTz9L64ux3hdDgMySY-3" style="edgeStyle=orthogonalEdgeStyle;rounded=0;orthogonalLoop=1;jettySize=auto;html=1;exitX=0.5;exitY=1;exitDx=0;exitDy=0;entryX=0.5;entryY=0;entryDx=0;entryDy=0;" edge="1" parent="1" source="0I61ulGY1BBRAlehvqKD-28" target="7zMTz9L64ux3hdDgMySY-2">
          <mxGeometry relative="1" as="geometry" />
        </mxCell>
        <mxCell id="0I61ulGY1BBRAlehvqKD-28" value="Apply avatar mesh url" style="rounded=0;whiteSpace=wrap;html=1;labelBackgroundColor=none;" parent="1" vertex="1">
          <mxGeometry x="200" y="240" width="140" height="40" as="geometry" />
        </mxCell>
        <mxCell id="0I61ulGY1BBRAlehvqKD-30" value="&lt;div&gt;Return&lt;/div&gt;" style="ellipse;whiteSpace=wrap;html=1;labelBackgroundColor=none;fillColor=#f8cecc;strokeColor=#b85450;" parent="1" vertex="1">
          <mxGeometry x="-120" y="160" width="100" height="40" as="geometry" />
        </mxCell>
        <mxCell id="0I61ulGY1BBRAlehvqKD-32" value="&lt;div&gt;Return&lt;/div&gt;" style="ellipse;whiteSpace=wrap;html=1;labelBackgroundColor=none;fillColor=#f8cecc;strokeColor=#b85450;" parent="1" vertex="1">
          <mxGeometry x="-120" y="320" width="100" height="40" as="geometry" />
        </mxCell>
        <mxCell id="0I61ulGY1BBRAlehvqKD-34" value="&lt;div&gt;End&lt;/div&gt;" style="ellipse;whiteSpace=wrap;html=1;labelBackgroundColor=none;fillColor=#d5e8d4;strokeColor=#82b366;" parent="1" vertex="1">
          <mxGeometry x="220" y="400" width="100" height="40" as="geometry" />
        </mxCell>
        <mxCell id="7zMTz9L64ux3hdDgMySY-6" style="edgeStyle=orthogonalEdgeStyle;rounded=0;orthogonalLoop=1;jettySize=auto;html=1;exitX=0.5;exitY=1;exitDx=0;exitDy=0;entryX=0.5;entryY=0;entryDx=0;entryDy=0;" edge="1" parent="1" source="0I61ulGY1BBRAlehvqKD-58" target="0I61ulGY1BBRAlehvqKD-24">
          <mxGeometry relative="1" as="geometry" />
        </mxCell>
        <mxCell id="0I61ulGY1BBRAlehvqKD-58" value="&lt;div&gt;Start session using SessionManager&lt;br&gt;&lt;/div&gt;" style="rounded=0;whiteSpace=wrap;html=1;labelBackgroundColor=none;" parent="1" vertex="1">
          <mxGeometry x="200" y="80" width="140" height="40" as="geometry" />
        </mxCell>
        <mxCell id="7zMTz9L64ux3hdDgMySY-4" style="edgeStyle=orthogonalEdgeStyle;rounded=0;orthogonalLoop=1;jettySize=auto;html=1;exitX=0.5;exitY=1;exitDx=0;exitDy=0;entryX=0.5;entryY=0;entryDx=0;entryDy=0;" edge="1" parent="1" source="7zMTz9L64ux3hdDgMySY-2" target="0I61ulGY1BBRAlehvqKD-34">
          <mxGeometry relative="1" as="geometry" />
        </mxCell>
        <mxCell id="7zMTz9L64ux3hdDgMySY-2" value="Apply avatar image url" style="rounded=0;whiteSpace=wrap;html=1;labelBackgroundColor=none;" vertex="1" parent="1">
          <mxGeometry x="200" y="320" width="140" height="40" as="geometry" />
        </mxCell>
      </root>
    </mxGraphModel>
  </diagram>
  <diagram id="UkyqMWy61kQY_aHttmVu" name="Type dependencies">
    <mxGraphModel dx="1434" dy="814" grid="0" gridSize="10" guides="1" tooltips="1" connect="1" arrows="1" fold="1" page="1" pageScale="1" pageWidth="827" pageHeight="1169" math="0" shadow="0">
      <root>
        <mxCell id="0" />
        <mxCell id="1" parent="0" />
        <mxCell id="YpgyIw_fxZt5yVSTN1Jr-1" value="&lt;div&gt;PlayerManagerBase&lt;/div&gt;" style="rounded=0;whiteSpace=wrap;html=1;labelBackgroundColor=none;" parent="1" vertex="1">
          <mxGeometry x="300" y="30" width="120" height="40" as="geometry" />
        </mxCell>
        <mxCell id="YpgyIw_fxZt5yVSTN1Jr-2" style="edgeStyle=orthogonalEdgeStyle;rounded=0;orthogonalLoop=1;jettySize=auto;html=1;exitX=0.5;exitY=0;exitDx=0;exitDy=0;entryX=0.5;entryY=1;entryDx=0;entryDy=0;strokeColor=#6666FF;" parent="1" source="YpgyIw_fxZt5yVSTN1Jr-4" target="YpgyIw_fxZt5yVSTN1Jr-6" edge="1">
          <mxGeometry relative="1" as="geometry" />
        </mxCell>
        <mxCell id="YpgyIw_fxZt5yVSTN1Jr-3" style="edgeStyle=orthogonalEdgeStyle;rounded=0;orthogonalLoop=1;jettySize=auto;html=1;exitX=1;exitY=0.5;exitDx=0;exitDy=0;entryX=0.5;entryY=1;entryDx=0;entryDy=0;strokeColor=#6666FF;" parent="1" source="YpgyIw_fxZt5yVSTN1Jr-4" target="YpgyIw_fxZt5yVSTN1Jr-7" edge="1">
          <mxGeometry relative="1" as="geometry" />
        </mxCell>
        <mxCell id="YpgyIw_fxZt5yVSTN1Jr-4" value="&lt;div&gt;Bootstrap&lt;/div&gt;" style="rounded=0;whiteSpace=wrap;html=1;labelBackgroundColor=none;" parent="1" vertex="1">
          <mxGeometry x="180" y="330" width="120" height="40" as="geometry" />
        </mxCell>
        <mxCell id="YpgyIw_fxZt5yVSTN1Jr-5" value="" style="edgeStyle=orthogonalEdgeStyle;rounded=0;orthogonalLoop=1;jettySize=auto;html=1;entryX=0.25;entryY=1;entryDx=0;entryDy=0;exitX=0.75;exitY=0;exitDx=0;exitDy=0;strokeColor=#6666FF;" parent="1" source="YpgyIw_fxZt5yVSTN1Jr-6" target="YpgyIw_fxZt5yVSTN1Jr-1" edge="1">
          <mxGeometry relative="1" as="geometry">
            <Array as="points">
              <mxPoint x="270" y="210" />
              <mxPoint x="330" y="210" />
            </Array>
          </mxGeometry>
        </mxCell>
        <mxCell id="ZHKwBBQ8N0cmVTwGv_ui-6" style="edgeStyle=orthogonalEdgeStyle;rounded=0;orthogonalLoop=1;jettySize=auto;html=1;exitX=0.5;exitY=0;exitDx=0;exitDy=0;entryX=0.5;entryY=1;entryDx=0;entryDy=0;strokeColor=#6666FF;" edge="1" parent="1" source="YpgyIw_fxZt5yVSTN1Jr-6" target="ZHKwBBQ8N0cmVTwGv_ui-2">
          <mxGeometry relative="1" as="geometry" />
        </mxCell>
        <mxCell id="ZHKwBBQ8N0cmVTwGv_ui-7" style="edgeStyle=orthogonalEdgeStyle;rounded=0;orthogonalLoop=1;jettySize=auto;html=1;exitX=0.25;exitY=0;exitDx=0;exitDy=0;entryX=0.5;entryY=1;entryDx=0;entryDy=0;strokeColor=#6666FF;" edge="1" parent="1" source="YpgyIw_fxZt5yVSTN1Jr-6" target="ZHKwBBQ8N0cmVTwGv_ui-1">
          <mxGeometry relative="1" as="geometry" />
        </mxCell>
        <mxCell id="YpgyIw_fxZt5yVSTN1Jr-6" value="SessionManager" style="rounded=0;whiteSpace=wrap;html=1;labelBackgroundColor=none;" parent="1" vertex="1">
          <mxGeometry x="180" y="250" width="120" height="40" as="geometry" />
        </mxCell>
        <mxCell id="YpgyIw_fxZt5yVSTN1Jr-7" value="&lt;div&gt;Arguments&lt;/div&gt;" style="rounded=0;whiteSpace=wrap;html=1;labelBackgroundColor=none;" parent="1" vertex="1">
          <mxGeometry x="360" y="250" width="120" height="40" as="geometry" />
        </mxCell>
        <mxCell id="YpgyIw_fxZt5yVSTN1Jr-8" style="edgeStyle=orthogonalEdgeStyle;rounded=0;orthogonalLoop=1;jettySize=auto;html=1;exitX=1;exitY=0.5;exitDx=0;exitDy=0;entryX=0.75;entryY=1;entryDx=0;entryDy=0;strokeColor=#6666FF;" parent="1" source="YpgyIw_fxZt5yVSTN1Jr-7" target="YpgyIw_fxZt5yVSTN1Jr-7" edge="1">
          <mxGeometry relative="1" as="geometry">
            <Array as="points">
              <mxPoint x="500" y="270" />
              <mxPoint x="500" y="310" />
              <mxPoint x="450" y="310" />
            </Array>
          </mxGeometry>
        </mxCell>
        <mxCell id="ZHKwBBQ8N0cmVTwGv_ui-9" style="edgeStyle=orthogonalEdgeStyle;rounded=0;orthogonalLoop=1;jettySize=auto;html=1;exitX=0.5;exitY=0;exitDx=0;exitDy=0;entryX=0.25;entryY=1;entryDx=0;entryDy=0;dashed=1;strokeColor=#009900;" edge="1" parent="1" source="ZHKwBBQ8N0cmVTwGv_ui-1" target="ZHKwBBQ8N0cmVTwGv_ui-8">
          <mxGeometry relative="1" as="geometry" />
        </mxCell>
        <mxCell id="ZHKwBBQ8N0cmVTwGv_ui-1" value="&lt;div&gt;ModelLoader&lt;/div&gt;" style="rounded=0;whiteSpace=wrap;html=1;labelBackgroundColor=none;" vertex="1" parent="1">
          <mxGeometry x="40" y="130" width="120" height="40" as="geometry" />
        </mxCell>
        <mxCell id="ZHKwBBQ8N0cmVTwGv_ui-10" style="edgeStyle=orthogonalEdgeStyle;rounded=0;orthogonalLoop=1;jettySize=auto;html=1;exitX=0.5;exitY=0;exitDx=0;exitDy=0;entryX=0.75;entryY=1;entryDx=0;entryDy=0;dashed=1;strokeColor=#009900;" edge="1" parent="1" source="ZHKwBBQ8N0cmVTwGv_ui-2" target="ZHKwBBQ8N0cmVTwGv_ui-8">
          <mxGeometry relative="1" as="geometry" />
        </mxCell>
        <mxCell id="ZHKwBBQ8N0cmVTwGv_ui-2" value="&lt;div&gt;ImageLoader&lt;/div&gt;" style="rounded=0;whiteSpace=wrap;html=1;labelBackgroundColor=none;" vertex="1" parent="1">
          <mxGeometry x="180" y="130" width="120" height="40" as="geometry" />
        </mxCell>
        <mxCell id="ZHKwBBQ8N0cmVTwGv_ui-5" style="edgeStyle=orthogonalEdgeStyle;rounded=0;orthogonalLoop=1;jettySize=auto;html=1;exitX=0.5;exitY=0;exitDx=0;exitDy=0;entryX=0.75;entryY=1;entryDx=0;entryDy=0;dashed=1;strokeColor=#009900;" edge="1" parent="1" source="ZHKwBBQ8N0cmVTwGv_ui-4" target="YpgyIw_fxZt5yVSTN1Jr-1">
          <mxGeometry relative="1" as="geometry" />
        </mxCell>
        <mxCell id="ZHKwBBQ8N0cmVTwGv_ui-4" value="PlayerManager" style="rounded=0;whiteSpace=wrap;html=1;labelBackgroundColor=none;" vertex="1" parent="1">
          <mxGeometry x="360" y="130" width="120" height="40" as="geometry" />
        </mxCell>
        <mxCell id="ZHKwBBQ8N0cmVTwGv_ui-8" value="&lt;div&gt;AssetLoaderBase&lt;/div&gt;" style="rounded=0;whiteSpace=wrap;html=1;labelBackgroundColor=none;" vertex="1" parent="1">
          <mxGeometry x="110" y="30" width="120" height="40" as="geometry" />
        </mxCell>
        <mxCell id="ZHKwBBQ8N0cmVTwGv_ui-16" value="" style="rounded=1;whiteSpace=wrap;html=1;fillColor=#fff2cc;strokeColor=#d6b656;" vertex="1" parent="1">
          <mxGeometry x="530" y="30" width="90" height="90" as="geometry" />
        </mxCell>
        <mxCell id="ZHKwBBQ8N0cmVTwGv_ui-11" style="edgeStyle=orthogonalEdgeStyle;rounded=0;orthogonalLoop=1;jettySize=auto;html=1;endArrow=block;endFill=1;strokeColor=#6666FF;" edge="1" parent="1">
          <mxGeometry relative="1" as="geometry">
            <mxPoint x="610" y="62" as="targetPoint" />
            <mxPoint x="540" y="62" as="sourcePoint" />
          </mxGeometry>
        </mxCell>
        <mxCell id="ZHKwBBQ8N0cmVTwGv_ui-12" value="references" style="text;html=1;align=left;verticalAlign=middle;resizable=0;points=[];autosize=1;strokeColor=none;fillColor=none;" vertex="1" parent="1">
          <mxGeometry x="540" y="30" width="80" height="30" as="geometry" />
        </mxCell>
        <mxCell id="ZHKwBBQ8N0cmVTwGv_ui-14" style="edgeStyle=orthogonalEdgeStyle;rounded=0;orthogonalLoop=1;jettySize=auto;html=1;dashed=1;endArrow=block;endFill=1;strokeColor=#009900;" edge="1" parent="1">
          <mxGeometry relative="1" as="geometry">
            <mxPoint x="610" y="102" as="targetPoint" />
            <mxPoint x="540" y="102" as="sourcePoint" />
          </mxGeometry>
        </mxCell>
        <mxCell id="ZHKwBBQ8N0cmVTwGv_ui-15" value="inherits" style="text;html=1;align=left;verticalAlign=middle;resizable=0;points=[];autosize=1;strokeColor=none;fillColor=none;" vertex="1" parent="1">
          <mxGeometry x="540" y="72" width="60" height="30" as="geometry" />
        </mxCell>
      </root>
    </mxGraphModel>
  </diagram>
  <diagram id="Vo_K0GBoyPOO6taIb6gG" name="Type dependencies simple">
    <mxGraphModel dx="1434" dy="814" grid="1" gridSize="10" guides="1" tooltips="1" connect="1" arrows="1" fold="1" page="1" pageScale="1" pageWidth="827" pageHeight="1169" math="0" shadow="0">
      <root>
        <mxCell id="0" />
        <mxCell id="1" parent="0" />
        <mxCell id="Ye-RNPWiKgaI-HYxASZ5-1" style="edgeStyle=orthogonalEdgeStyle;rounded=0;orthogonalLoop=1;jettySize=auto;html=1;exitX=0.5;exitY=0;exitDx=0;exitDy=0;entryX=0.55;entryY=0.95;entryDx=0;entryDy=0;strokeColor=#6666FF;entryPerimeter=0;" edge="1" parent="1" source="Ye-RNPWiKgaI-HYxASZ5-3" target="Ye-RNPWiKgaI-HYxASZ5-6">
          <mxGeometry relative="1" as="geometry">
            <mxPoint x="240" y="290" as="targetPoint" />
          </mxGeometry>
        </mxCell>
        <mxCell id="Ye-RNPWiKgaI-HYxASZ5-2" style="edgeStyle=orthogonalEdgeStyle;rounded=0;orthogonalLoop=1;jettySize=auto;html=1;exitX=1;exitY=0.5;exitDx=0;exitDy=0;entryX=0.5;entryY=1;entryDx=0;entryDy=0;strokeColor=#6666FF;" edge="1" parent="1" source="Ye-RNPWiKgaI-HYxASZ5-3" target="Ye-RNPWiKgaI-HYxASZ5-4">
          <mxGeometry relative="1" as="geometry" />
        </mxCell>
        <mxCell id="Ye-RNPWiKgaI-HYxASZ5-3" value="&lt;div&gt;Bootstrap&lt;/div&gt;" style="rounded=0;whiteSpace=wrap;html=1;labelBackgroundColor=none;" vertex="1" parent="1">
          <mxGeometry x="180" y="330" width="120" height="40" as="geometry" />
        </mxCell>
        <mxCell id="Ye-RNPWiKgaI-HYxASZ5-4" value="&lt;div&gt;Arguments&lt;/div&gt;" style="rounded=0;whiteSpace=wrap;html=1;labelBackgroundColor=none;" vertex="1" parent="1">
          <mxGeometry x="360" y="250" width="120" height="40" as="geometry" />
        </mxCell>
        <mxCell id="Ye-RNPWiKgaI-HYxASZ5-5" style="edgeStyle=orthogonalEdgeStyle;rounded=0;orthogonalLoop=1;jettySize=auto;html=1;exitX=1;exitY=0.5;exitDx=0;exitDy=0;entryX=0.75;entryY=1;entryDx=0;entryDy=0;strokeColor=#6666FF;" edge="1" parent="1" source="Ye-RNPWiKgaI-HYxASZ5-4" target="Ye-RNPWiKgaI-HYxASZ5-4">
          <mxGeometry relative="1" as="geometry">
            <Array as="points">
              <mxPoint x="500" y="270" />
              <mxPoint x="500" y="310" />
              <mxPoint x="450" y="310" />
            </Array>
          </mxGeometry>
        </mxCell>
        <mxCell id="Ye-RNPWiKgaI-HYxASZ5-6" value="&lt;div&gt;The rest of&lt;/div&gt;&lt;div&gt;the app&lt;br&gt;&lt;/div&gt;" style="ellipse;shape=cloud;whiteSpace=wrap;html=1;" vertex="1" parent="1">
          <mxGeometry x="140" y="210" width="140" height="80" as="geometry" />
        </mxCell>
      </root>
    </mxGraphModel>
  </diagram>
</mxfile>
